<?xml version="1.0" encoding="iso-8859-1"?>
<!-- Generator: Adobe Illustrator 16.0.0, SVG Export Plug-In . SVG Version: 6.00 Build 0)  -->
<!DOCTYPE svg PUBLIC "-//W3C//DTD SVG 1.1//EN" "http://www.w3.org/Graphics/SVG/1.1/DTD/svg11.dtd">
<svg version="1.1" id="Capa_1" xmlns="http://www.w3.org/2000/svg" xmlns:xlink="http://www.w3.org/1999/xlink" x="0px" y="0px"
	 width="323.039px" height="323.039px" fill="red" viewBox="0 0 323.039 323.039" style="enable-background:new 0 0 323.039 323.039;"
	 xml:space="preserve">
<g>
	<g>
		<g id="Layer_5_36_">
			<g>
				<g>
					<path d="M236.067,92.111c7.024-12.367,24.769-29.363,18.075-62.254c-6.69-32.887,42.9,33.736,12.425,93.479
						c-10.724,21.018-34.17,22.012-40.225,15.988C220.286,133.305,231.008,101.02,236.067,92.111z"/>
					<path d="M224.539,102.479c0.878,1.125,1.457-1.457,1.893-2.679c2.21-6.225,4.475-11.397,6.045-14.163
						c0.642-1.129,1.342-2.263,2.082-3.411c0.454-0.704,1.422-1.997,1.257-3.493c-0.648-5.439-1.469-18.383,5.646-22.451
						c8.843-5.057-19.225-17.463-23.276,18.521C216.898,86.193,221.345,98.392,224.539,102.479z"/>
				</g>
				<g>
					<path d="M86.971,92.111c-7.024-12.367-24.767-29.363-18.075-62.254c6.69-32.887-42.9,33.736-12.425,93.479
						c10.723,21.018,34.17,22.012,40.225,15.988C102.751,133.305,92.03,101.02,86.971,92.111z"/>
					<path d="M98.776,102.292c-0.799,1.021-1.292,0.039-1.501-0.573c-2.412-7.073-4.983-13.035-6.712-16.081
						c-0.739-1.301-1.554-2.606-2.421-3.934c-0.347-0.532-1.165-1.35-0.967-2.479c0.649-5.44,1.518-18.874-5.596-22.942
						c-8.843-5.057,19.223-17.463,23.276,18.521C106.14,86.193,101.972,98.205,98.776,102.292z"/>
				</g>
				<g>
					<path d="M167.949,266.564c-3.537-4.566-9.324-4.566-12.861,0l-33.553,43.327c-3.537,4.563-2.789,6.772,1.662,4.902
						c0,0,27.144-10.615,31.097-10.615c3.227,0,3.602,18.86,8.352,18.86c5.75,0,4.792-18.649,8.402-18.649
						c3.305,0,28.801,10.364,28.801,10.364c4.446,1.895,5.19-0.299,1.654-4.862L167.949,266.564z"/>
					<path d="M161.239,250.21c4.402,0,8.599,2.287,11.815,6.439l12.75,16.463c0.924,1.178,2.145,0.127,2.646-0.529
						c4.326-5.646,6.899-12.69,6.899-20.338c0-18.565-15.147-33.619-33.833-33.619c-18.687,0-33.832,15.054-33.832,33.619
						c0,7.326,2.362,14.1,6.366,19.62c0.572,0.789,2.8,1.3,3.717-0.167l11.652-15.047
						C152.642,252.498,156.836,250.21,161.239,250.21z"/>
					<path d="M161.52,166.932c-23.605,0-42.74,19.017-42.74,42.474c0,6.368,1.419,12.402,3.952,17.82
						c0.504,1.078,2.248,2.63,3.221,0.112c6.991-14.797,19.385-21.643,35.847-21.643c16.267,0,28.642,6.882,35.715,21.388
						c0.717,1.612,2.429,0.961,2.858,0.028c2.494-5.391,3.89-11.388,3.89-17.708C204.26,185.947,185.124,166.932,161.52,166.932z"/>
					<path d="M189.818,69.344c-0.548-0.574-0.438-1.511-0.438-1.616c0-6.516-6.126-11.77-14.946-12.084
						c-0.893-0.166-0.547-0.834-0.37-1.225c2.523-5.575,5.303-11.174,8.326-16.523c16.855-29.83,64.464-35.223,64.464-35.223
						s8.044-2.111,2.705-2.393c-17.771-0.937-70.096-2.935-87.542,58.123c-0.162,0.543-0.632,0.668-0.991,0
						C143.456-3.083,90.519-0.65,73.116,0.326c-4.22,0.236-1.525,1.354-1.525,1.354s52.204,6.385,69.062,36.215
						c2.961,5.239,5.687,10.716,8.168,16.176c0.229,0.508,0.909,1.656-0.535,1.6c-8.82,0.314-14.625,5.541-14.625,12.057
						c0,0.425,0.069,1.167-0.441,1.615c-14.074,9.313-22.866,27.563-22.866,59.438c0,15.701,2.265,30.461,6.243,43.331
						c0.839,2.717,2.709,7.866,5.858,3.164c6.775-11.048,21.684-20.605,40.045-20.605c17.562,0,31.563,7.226,38.701,18.848
						c3.062,5.211,5.229-1.247,6.087-4.272c3.451-12.176,5.399-25.914,5.399-40.463C212.687,96.91,203.894,78.658,189.818,69.344z"
						/>
				</g>
			</g>
		</g>
	</g>
</g>
<g>
</g>
<g>
</g>
<g>
</g>
<g>
</g>
<g>
</g>
<g>
</g>
<g>
</g>
<g>
</g>
<g>
</g>
<g>
</g>
<g>
</g>
<g>
</g>
<g>
</g>
<g>
</g>
<g>
</g>
</svg>
