<?xml version="1.0" ?><!DOCTYPE svg  PUBLIC '-//W3C//DTD SVG 1.1//EN'  'http://www.w3.org/Graphics/SVG/1.1/DTD/svg11.dtd'><svg enable-background="new 0 0 24 24" height="24px" id="Layer_1" version="1.1" viewBox="0 0 24 24" width="24px" xml:space="preserve" xmlns="http://www.w3.org/2000/svg" xmlns:xlink="http://www.w3.org/1999/xlink"><g><path d="M23.2,3h-7.5h-2.8L0.5,15.3c-0.4,0.4-0.3,0.9,0.1,1.3l7.1,7.1c0.4,0.4,1,0.4,1.4,0L9.7,23l0.7,0.7c0.4,0.4,0.9,0.4,1.3,0   L24,11.3V3.8C24,3.3,23.8,3,23.2,3z M8.3,23l-7.1-7.1L13.2,4h1.4L3.4,15.2c-0.4,0.4-0.4,1,0,1.4L9,22.3L8.3,23z M22,10.5L11,21.6   L5.4,16L16.6,5H22V10.5z"/><path d="M18,11c1.1,0,2-0.9,2-2s-0.9-2-2-2s-2,0.9-2,2S16.9,11,18,11z M18,8c0.6,0,1,0.4,1,1s-0.4,1-1,1s-1-0.4-1-1S17.4,8,18,8z"/><rect height="1" transform="matrix(-0.7071 -0.7071 0.7071 -0.7071 4.5504 36.2989)" width="5" x="7.3" y="16.7"/><rect height="1" transform="matrix(-0.7071 -0.7071 0.7071 -0.7071 7.9643 34.8848)" width="5" x="8.7" y="15.3"/></g></svg>